<mxfile host="app.diagrams.net" modified="2022-01-04T18:43:53.905Z" agent="5.0 (Windows NT 10.0; Win64; x64) AppleWebKit/537.36 (KHTML, like Gecko) Chrome/96.0.4664.110 Safari/537.36" etag="SpC46oyJ6Lz8sRGfrpOf" version="16.1.0" type="github">
  <diagram id="vy0CtbQ76ucwa9Y7Szsx" name="Pagina-1">
    <mxGraphModel dx="1193" dy="852" grid="1" gridSize="10" guides="1" tooltips="1" connect="1" arrows="1" fold="1" page="1" pageScale="1" pageWidth="1654" pageHeight="1169" math="0" shadow="0">
      <root>
        <mxCell id="0" />
        <mxCell id="1" parent="0" />
        <mxCell id="1dJfJ1rZqjLr5oNph3Wv-3" style="edgeStyle=orthogonalEdgeStyle;rounded=0;orthogonalLoop=1;jettySize=auto;html=1;" edge="1" parent="1" source="1dJfJ1rZqjLr5oNph3Wv-1">
          <mxGeometry relative="1" as="geometry">
            <mxPoint x="370" y="175" as="targetPoint" />
          </mxGeometry>
        </mxCell>
        <mxCell id="1dJfJ1rZqjLr5oNph3Wv-6" style="edgeStyle=orthogonalEdgeStyle;rounded=0;orthogonalLoop=1;jettySize=auto;html=1;entryX=-0.02;entryY=0.56;entryDx=0;entryDy=0;entryPerimeter=0;" edge="1" parent="1" source="1dJfJ1rZqjLr5oNph3Wv-1" target="1dJfJ1rZqjLr5oNph3Wv-5">
          <mxGeometry relative="1" as="geometry" />
        </mxCell>
        <mxCell id="1dJfJ1rZqjLr5oNph3Wv-11" style="edgeStyle=orthogonalEdgeStyle;rounded=0;orthogonalLoop=1;jettySize=auto;html=1;" edge="1" parent="1" source="1dJfJ1rZqjLr5oNph3Wv-1" target="1dJfJ1rZqjLr5oNph3Wv-10">
          <mxGeometry relative="1" as="geometry" />
        </mxCell>
        <mxCell id="1dJfJ1rZqjLr5oNph3Wv-22" style="edgeStyle=orthogonalEdgeStyle;rounded=0;orthogonalLoop=1;jettySize=auto;html=1;" edge="1" parent="1" source="1dJfJ1rZqjLr5oNph3Wv-1" target="1dJfJ1rZqjLr5oNph3Wv-21">
          <mxGeometry relative="1" as="geometry" />
        </mxCell>
        <mxCell id="1dJfJ1rZqjLr5oNph3Wv-1" value="TMS" style="sketch=0;aspect=fixed;html=1;points=[];align=center;image;fontSize=12;image=img/lib/mscae/App_Services.svg;" vertex="1" parent="1">
          <mxGeometry x="200" y="150" width="50" height="50" as="geometry" />
        </mxCell>
        <mxCell id="1dJfJ1rZqjLr5oNph3Wv-4" value="Caspio" style="sketch=0;aspect=fixed;html=1;points=[];align=center;image;fontSize=12;image=img/lib/mscae/App_Services.svg;" vertex="1" parent="1">
          <mxGeometry x="370" y="150" width="50" height="50" as="geometry" />
        </mxCell>
        <mxCell id="1dJfJ1rZqjLr5oNph3Wv-8" value="" style="edgeStyle=orthogonalEdgeStyle;rounded=0;orthogonalLoop=1;jettySize=auto;html=1;" edge="1" parent="1" source="1dJfJ1rZqjLr5oNph3Wv-5">
          <mxGeometry relative="1" as="geometry">
            <mxPoint x="395" y="390" as="targetPoint" />
          </mxGeometry>
        </mxCell>
        <mxCell id="1dJfJ1rZqjLr5oNph3Wv-5" value="DNC" style="sketch=0;aspect=fixed;html=1;points=[];align=center;image;fontSize=12;image=img/lib/mscae/App_Services.svg;" vertex="1" parent="1">
          <mxGeometry x="370" y="260" width="50" height="50" as="geometry" />
        </mxCell>
        <mxCell id="1dJfJ1rZqjLr5oNph3Wv-9" value="External 1" style="outlineConnect=0;dashed=0;verticalLabelPosition=bottom;verticalAlign=top;align=center;html=1;shape=mxgraph.aws3.classic_load_balancer;fillColor=#F58534;gradientColor=none;" vertex="1" parent="1">
          <mxGeometry x="370" y="390" width="50" height="50" as="geometry" />
        </mxCell>
        <mxCell id="1dJfJ1rZqjLr5oNph3Wv-10" value="Sendgrid" style="sketch=0;aspect=fixed;html=1;points=[];align=center;image;fontSize=12;image=img/lib/mscae/SendGrid_Accounts.svg;" vertex="1" parent="1">
          <mxGeometry x="50" y="150" width="50" height="50" as="geometry" />
        </mxCell>
        <mxCell id="1dJfJ1rZqjLr5oNph3Wv-21" value="TMS API" style="sketch=0;aspect=fixed;html=1;points=[];align=center;image;fontSize=12;image=img/lib/mscae/App_Services.svg;" vertex="1" parent="1">
          <mxGeometry x="200" y="270" width="50" height="50" as="geometry" />
        </mxCell>
      </root>
    </mxGraphModel>
  </diagram>
</mxfile>
